Coordinates
version=1
nRows=11
nColumns=32
inDegrees=yes

Units are S.I. units (second, meters, Newtons, ...)
If the header above contains a line with 'inDegrees', this indicates whether rotational values are in degrees (yes) or radians (no).

endheader
time	pelvis_tilt	pelvis_list	pelvis_rotation	pelvis_tx	pelvis_ty	pelvis_tz	hip_flexion_r	hip_adduction_r	hip_rotation_r	knee_angle_r	knee_adduction_r	med_cond_adduction_r	lat_cond_adduction_r	patella_r_constrained_knee_angle	ankle_angle_r	subtalar_angle_r	mtp_angle_r	hip_flexion_l	hip_adduction_l	hip_rotation_l	knee_angle_l	knee_adduction_l	med_cond_adduction_l	lat_cond_adduction_l	patella_l_constrained_knee_angle	ankle_angle_l	subtalar_angle_l	mtp_angle_l	lumbar_extension	lumbar_bending	lumbar_rotation
      0.45000000	     -0.65302069	     -0.61502145	     92.22281251	      0.41392106	      1.09442607	     -1.47407605	    -29.86179588	    -10.55166920	    -39.95848875	    -40.94685897	      0.00000000	      0.00000000	     -0.00000000	     -0.71465751	    -39.89459976	    -19.84614449	      0.00000000	     12.95445307	      1.23317134	    -11.47282007	     -8.20919110	      0.00000000	     -0.00000000	      0.00000000	     -0.14327741	     -2.41357266	     19.51948647	     -0.00000000	      0.00000000	      0.00000000	      0.00000000
      0.45416667	     -0.79370335	     -0.56139933	     92.88591171	      0.41232435	      1.09147019	     -1.48984759	    -29.87598301	    -10.68593468	    -39.95733809	    -42.43866360	      0.00000000	      0.00000000	     -0.00000000	     -0.74069441	    -39.88979793	    -19.85861086	     -0.00000000	     12.53342423	      1.62235831	    -10.47292001	     -8.44943592	     -0.00000000	      0.00000000	     -0.00000000	     -0.14747048	     -3.29458615	     19.48009419	     -0.00000000	     -0.00000000	      0.00000000	      0.00000000
      0.45833333	     -0.86005423	     -0.46806242	     93.61931608	      0.41053446	      1.08851234	     -1.50539907	    -29.88740094	    -10.72223036	    -39.95617030	    -43.93841511	     -0.00000000	      0.00000000	     -0.00000000	     -0.76687001	    -39.88385169	    -19.86865329	     -0.00000000	     12.10190510	      1.92795696	     -9.35306949	     -8.84710445	      0.00000000	     -0.00000000	      0.00000000	     -0.15441110	     -4.44881201	     19.42733538	      0.00000000	     -0.00000000	      0.00000000	      0.00000000
      0.46250000	     -1.00327275	     -0.35870433	     94.26087115	      0.40886237	      1.08538023	     -1.52103584	    -29.89662595	    -10.88068927	    -39.95484052	    -45.49629419	     -0.00000000	      0.00000000	     -0.00000000	     -0.79406013	    -39.87773535	    -19.87610014	     -0.00000000	     11.63346431	      2.28141483	     -8.45069715	     -9.35446577	     -0.00000000	     -0.00000000	      0.00000000	     -0.16326623	     -4.92540484	     19.30403291	     -0.00000000	     -0.00000000	      0.00000000	      0.00000000
      0.46666667	     -0.98597942	     -0.22620546	     95.00555561	      0.40696818	      1.08210205	     -1.53666867	    -29.90465016	    -10.84704568	    -39.95337880	    -46.98590159	      0.00000000	     -0.00000000	      0.00000000	     -0.82005868	    -39.86760701	    -19.88378356	      0.00000000	     11.07284619	      2.51014977	     -7.23316405	     -9.86603308	      0.00000000	     -0.00000000	      0.00000000	     -0.17219476	     -5.30618964	     19.07488038	      0.00000000	     -0.00000000	     -0.00000000	     -0.00000000
      0.47083333	     -1.06381263	     -0.05203988	     95.70414134	      0.40488827	      1.07874845	     -1.55191183	    -29.91085041	    -10.94432402	    -39.95194531	    -48.55855456	     -0.00000000	     -0.00000000	      0.00000000	     -0.84750666	    -39.85853976	    -19.88823193	     -0.00000000	     10.34773617	      2.93008959	     -5.77602571	    -10.36426843	      0.00000000	      0.00000000	     -0.00000000	     -0.18089061	     -5.11318841	     18.67272179	      0.00000000	     -0.00000000	     -0.00000000	      0.00000000
      0.47500000	     -1.26181377	      0.16113215	     96.31481032	      0.40271297	      1.07572082	     -1.56696638	    -29.91606858	    -11.24567840	    -39.95061550	    -50.13523910	      0.00000000	     -0.00000000	      0.00000000	     -0.87502499	    -39.84455356	    -19.89192443	     -0.00000000	      9.46060434	      3.53099151	     -4.39267783	    -11.04327098	     -0.00000000	      0.00000000	      0.00000000	     -0.19274144	     -3.82154712	     18.07813779	      0.00000000	      0.00000000	     -0.00000000	     -0.00000000
      0.47916667	     -1.62910022	      0.40340169	     96.88767257	      0.40070745	      1.07296563	     -1.58165831	    -29.92035839	    -11.70606664	    -39.94904296	    -51.76639413	     -0.00000000	      0.00000000	     -0.00000000	     -0.90349402	    -39.82645973	    -19.89440154	      0.00000000	      8.54046916	      4.28919968	     -3.56004200	    -11.69400854	     -0.00000000	     -0.00000000	      0.00000000	     -0.20409895	     -2.36145022	     17.15233423	     -0.00000000	     -0.00000000	      0.00000000	     -0.00000000
      0.48333333	     -2.00977594	      0.70194020	     97.55341620	      0.39868897	      1.07075979	     -1.59589159	    -29.92403545	    -12.10276990	    -39.94726229	    -53.40829638	      0.00000000	     -0.00000000	      0.00000000	     -0.93215062	    -39.80474479	    -19.89590052	     -0.00000000	      7.67151374	      4.97956702	     -3.08210762	    -12.37511620	      0.00000000	      0.00000000	     -0.00000000	     -0.21598652	     -1.26397964	     16.41404653	     -0.00000000	     -0.00000000	     -0.00000000	      0.00000000
      0.48750000	     -2.57394693	      0.98953076	     98.02721659	      0.39718541	      1.06883665	     -1.61051935	    -29.92717465	    -12.74525091	    -39.94458890	    -55.00173499	      0.00000000	      0.00000000	     -0.00000000	     -0.95996137	    -39.77425229	    -19.89765486	     -0.00000000	      6.82470475	      5.69168810	     -3.23644723	    -13.04820241	     -0.00000000	      0.00000000	     -0.00000000	     -0.22773409	     -0.19671272	     15.69386689	     -0.00000000	      0.00000000	     -0.00000000	      0.00000000
      0.49166667	     -3.01260234	      1.35116473	     98.69287745	      0.39567503	      1.06727724	     -1.62440431	    -29.93005503	    -13.11161907	    -39.94191190	    -56.57022056	      0.00000000	     -0.00000000	      0.00000000	     -0.98733661	    -39.73425861	    -19.89847055	      0.00000000	      5.93861490	      6.24569956	     -2.77498456	    -13.70251157	     -0.00000000	     -0.00000000	      0.00000000	     -0.23915394	      0.82522460	     14.50196291	      0.00000000	     -0.00000000	      0.00000000	      0.00000000
